# xmcd
#
# Track frame offsets:
#	150
#	13759
#	27310
#	40995
#	61495
#	78430
#	97770
#	113665
#	127392
#	138522
#	155254
#	170215
#
# Disc length: 2427 seconds
#
# Revision: 1
# Processed by: cddbd v1.5.2PL0 Copyright (c) Steve Scherf et al.
# Submitted via: audiograbber 1.83.01
#
DISCID=a009790c
DTITLE=Pinebox Serenade - Let The River Take Them Home
DYEAR=2008
DGENRE=
TTITLE0=Woven Arms
TTITLE1=Neches River
TTITLE2=Isabelle
TTITLE3=Bottle And Rusty Blade
TTITLE4=The Plains
TTITLE5=Too Cold To Snow
TTITLE6=The Faithful
TTITLE7=Forgiveness
TTITLE8=Sons of Soil
TTITLE9=Darkness Falls
TTITLE10=Witch On The Mountain
TTITLE11=The Lash
EXTD=
EXTT0=
EXTT1=
EXTT2=
EXTT3=
EXTT4=
EXTT5=
EXTT6=
EXTT7=
EXTT8=
EXTT9=
EXTT10=
EXTT11=
PLAYORDER=
